<?xml version="1.0" encoding="UTF-8"?>
<!DOCTYPE svg PUBLIC "-//W3C//DTD SVG 1.1//EN" "http://www.w3.org/Graphics/SVG/1.1/DTD/svg11.dtd">
<!-- Creator: CorelDRAW 2019 (64-Bit) -->
<svg xmlns="http://www.w3.org/2000/svg" xml:space="preserve" width="1000" height="1000" version="1.1" style="shape-rendering:geometricPrecision; text-rendering:geometricPrecision; image-rendering:optimizeQuality; fill-rule:evenodd; clip-rule:evenodd"
viewBox="0 0 53361.16 32840.79"
 xmlns:xlink="http://www.w3.org/1999/xlink"
 xmlns:xodm="http://www.corel.com/coreldraw/odm/2003">
 <defs>
  <style type="text/css">
   <![CDATA[
    .fil0 {fill:#54B3E1}
   ]]>
  </style>
 </defs>
 <g id="图层_x0020_1">
  <metadata id="CorelCorpID_0Corel-Layer"/>
  <path class="fil0" d="M35933.14 18123.61l1151.67 5.24c147.89,-71.6 6472.02,-27.29 7671.75,-27.19 251.63,0.02 219.47,17.77 387.1,-159.84l2358.53 -2592.15c-1391.59,-45.73 -8253,36.72 -8522.9,-55.77l775.25 -5434.75c115.07,-808.24 475.42,-1936.11 -122.73,-2626.99 -258.91,-299.04 -616.07,-540.44 -1018.57,-538.12 -533.28,3.08 -1067.14,2.01 -1600.69,2.01l-1809.89 10559.07c-204.78,1258.13 332.06,734.82 730.48,868.48z"/>
  <path class="fil0" d="M3103.58 11557.19c-228.63,0 -1600.88,-73.3 -1677.36,149.26 -112.34,326.92 508.68,932.37 764.44,1078.05 1042.49,593.8 2080.75,606.44 3226.71,612.17l4274.95 -19.75c874.37,-19.92 1730.05,-241.73 2164.43,639.91 219.12,444.73 132.44,876.76 -220.29,1208.06 -456.71,428.97 -982.49,511.32 -1552.37,479.42l-3825.2 -3.98c-1237.46,0 -2572.36,-49.7 -3796.04,-9.67 -210.21,6.88 -421.74,72.58 -579.45,242.34l-1774.01 1909.51c-224.77,241.95 -133.11,262.16 557.76,261.51l5675.87 -5.35c1908.22,0 5145.39,241.5 6774.88,-840.03 927.98,-615.91 1279.66,-1207 1488.35,-2296.13 200.35,-1045.58 37.81,-2165.72 -944.18,-2753.24 -1045.44,-625.48 -1981.86,-627.5 -3154.06,-632.56 -2471.43,-10.68 -4932.17,-19.52 -7404.43,-19.52z"/>
  <path class="fil0" d="M22414.02 11618.95l-1020.52 6490.53 3311.25 -9.15 654.21 -4043.66 5427.12 2.7c384.8,0.03 908.79,107.58 1190.77,-197.59 250.45,-271.05 1918.23,-2086.61 1856.26,-2289.36 -106.75,-26.3 -1191.25,4.47 -1406.27,4.47l-10012.82 42.08z"/>
  <path class="fil0" d="M51737.29 6696.06c-1226.81,0 -1135.92,-218.15 -1292.68,684.72l-1653.89 10721.2 3097.74 -1.66 1345.11 -8813.83c134.69,-936.82 379.32,-1710.55 -623.24,-2411.79 -343.58,-218.74 -456.94,-178.64 -873.03,-178.64z"/>
  <path class="fil0" d="M13547.93 26543.38c-11.06,-77.31 127.04,-1170.07 152.97,-1296.29 106.16,-516.78 14.18,-734.28 399.94,-1114.74 101.53,-100.14 2865.17,-528.34 2828.31,608.37 -16.38,505.26 -65.03,1505.76 -508.66,1753.65 -361.75,202.15 -2403.26,120.27 -2872.57,49.01zm4238.31 -3816.36c-179.32,-3.62 -366.74,-67.43 -528.68,-102.39 -326.03,-70.38 -2007.26,-102.51 -2402.68,31.83 -355.77,120.88 -515.8,272.34 -795.73,508.52 -179.17,151.16 -258.18,224.59 -342.95,308.58 -321.32,-445.72 85.9,-872.77 -1441.22,-872.77l-1024.48 7369.61 1827.85 0 332.54 -2951.62c262.86,24.34 26.03,11.8 349.17,408.15 146.11,179.2 197.63,268.49 409.11,390.28 395.36,227.7 829.79,264.36 1258.74,297.92 828.86,64.85 1804.67,35.29 2432.39,-601.54 876.07,-888.79 1224.77,-3191.58 540.9,-4223.47 -170.73,-257.63 -242.18,-235.58 -391.04,-408.35l-223.91 -154.75z"/>
  <path class="fil0" d="M22876.8 9304.77l9550.05 0c1071.03,0 693.02,136.54 1378.67,-556.65l1391.42 -1511.64c144.02,-158.58 403.45,-323.49 427.28,-540.41l-9551.58 -1.69c-569.81,1.7 -1020.42,167.33 -1537.73,397.72 -677.57,301.77 -1663.89,1451.86 -1658.11,2212.67z"/>
  <path class="fil0" d="M15051.13 7027.18c-198.83,-87.95 -5066.7,-33.51 -5973.36,-36.84 -2075.9,-7.61 -5051.24,-343.75 -6740.59,1127.18 -166.1,144.63 -869.6,991.01 -797.59,1172.07 73.39,184.57 3506.76,99.33 3877.87,99.33l7025.05 -0.75c422.21,1.55 505.28,97.47 773.94,-235.79 300.32,-372.54 629.54,-717.08 942.7,-1076.83 142.72,-163.95 931.42,-907.87 891.98,-1048.36z"/>
  <path class="fil0" d="M23929.48 26187.27c-37.56,182.07 9.48,172.12 -156.34,319.73 -346.88,308.79 -855.77,236.93 -1443.25,236.93 -587.49,0 -1853.11,140.08 -1703.38,-455.58 123.22,-490.24 593.06,-449.88 1160.38,-460.27 567.32,-10.39 1841.94,-17.9 2009.09,19.18 228.79,50.75 166.06,182.25 133.5,340.01zm-4334.19 -2197.97c1316.14,0 2644.57,-26.79 3956.72,-2.09 572.25,10.47 645.55,534.13 520,818.76 -356.32,94.76 -2897.07,-29.45 -3590.96,27.12 -621.4,50.66 -800.48,129.55 -1233.81,575.31 -569.84,586.18 -652.55,1967.1 335.68,2464.26 727.94,366.21 2430.66,353.47 3202.08,148.27 674.54,-179.42 946.88,-649.36 1101.5,-749.71 213.76,324.33 131.56,455.72 521.82,698.32 363.75,226.11 709.69,101.45 1076.86,101.12l413.13 -2994.97c110.41,-1011.5 285.68,-1913.32 -911.6,-2355.05 -595.68,-219.77 -2577.24,-119.67 -3329.97,-119.86 -537.3,-0.14 -946.61,-6.62 -1395.33,329.61 -304.75,228.35 -667.44,666.6 -666.12,1058.91z"/>
  <path class="fil0" d="M39120.37 28082.41l4880.26 0c723.24,0.8 1468.78,-114.25 2006.29,-651.63 517.31,-517.18 616.35,-1348.21 220.43,-1970.12 -445.55,-699.87 -1240.35,-726.91 -1978.63,-726.89 -249.84,0 -2594.15,7.38 -2630.55,-7 -374.91,-148.01 -195.28,-696.62 73.79,-769.98l4019.62 -19.17c163.62,-171.94 383.27,-454.47 532.18,-645.88 152.28,-195.75 443.27,-455.94 571.27,-648.87l-4204.29 -40.18c-520.63,-1.97 -875.27,-33.47 -1390.98,82.39 -700.89,157.46 -1421.97,635.71 -1546.35,1398.37 -156.01,956.64 408.68,1435.94 1225.69,1699.09 601.62,193.77 2136.4,100.09 2844.84,100.12 336.55,0.01 1105.82,-108.24 957.95,490.87 -112.35,455.19 -781.92,350.82 -1126.26,350.77 -971.65,-0.14 -1931.82,-34.65 -2902.65,-41.86 -632.28,-4.69 -497.02,88.71 -902.53,543.77l-650.07 856.22z"/>
  <path class="fil0" d="M32083.76 28095.53l1757.94 -13.13 352.12 -2199.69c810.98,0 578.69,-25.36 1340.73,931.2 285.33,358.15 714.04,938.78 1025.63,1246.35 690.04,81.93 1431.02,30.84 2105.8,29.85 77.63,-233.51 -253.29,-537.1 -423.05,-702.99l-1651.08 -2009.32c69.02,-257.9 2760.5,-2560.02 2818.73,-2777.01 -587.37,0 -1181.41,8.47 -1767.75,-0.78 -503.39,-7.94 -297.93,-3.64 -624.34,259.18 -310.61,250.1 -1022.41,982.31 -1404.39,1330.37 -329.58,300.31 -678.65,758.56 -1176.51,568.2 -170,-419.23 424.51,-2431.5 234.13,-3013.51 -138.45,-423.26 -658.43,-610.43 -1064.67,-617.85 -799.95,-14.61 -525.96,-11.16 -727.21,1055.48l-796.08 5913.65z"/>
  <path class="fil0" d="M3271.86 23989.3c-19.41,1173.78 2312.79,1144.54 3094.75,1125.84 709.28,-16.96 1412.3,-22.36 2122.69,-32.54 365.89,-5.24 612.97,-28.35 896.12,239.38 241.13,228 255.65,562.6 102.61,847.4 -284.52,529.45 -1320.07,386.71 -1840.84,386.55l-3363.84 1.81c-513.07,-0.48 -600.05,-55.62 -909.89,350.74l-946.56 1165.06 5221.11 8.87c1316.38,1.04 3155.12,-118.44 3541.18,-1728.81 525.42,-2191.7 -1163.29,-2357.88 -2742.84,-2364.09l-5174.49 -0.2z"/>
  <path class="fil0" d="M26243.93 28082.41l1755.68 0 592.11 -3510.73c195.89,-562.47 938.44,-541.58 1479.11,-540.35 2540.09,5.78 1935.24,188.08 2115.16,-703.66 36.67,-181.77 72.57,-531.61 72.57,-726.87 -757.11,0 -1517.16,-6.9 -2273.78,-1.97 -323.86,2.12 -575.9,121.07 -840.16,295.79 -349.95,231.38 -463.69,460.51 -630.35,505.62 -117.46,-133.99 -77.46,-203.12 -175.25,-371.72 -357.05,-615.59 -1266.05,-427.08 -1286.93,-414.88l-808.16 5468.77z"/>
  <path class="fil0" d="M3422.81 22588.31l6527.9 25.65c537.46,2.11 345.37,-29.18 1009.16,-781.45 91.92,-104.17 171.39,-218.44 272.5,-316.6 149.47,-145.12 273.87,-143.65 277.33,-331.19 -172.48,-124.24 -4211.86,-56.58 -4745.97,-56.58 -612.54,-0.01 -1589.15,-2.85 -2145.85,252.22 -350.49,160.59 -1189.05,563.35 -1195.07,1207.95z"/>
  <path class="fil0" d="M15598.57 2109.77c48.48,-13.05 758.76,-454.23 903.62,-526.85 1093.4,-548.21 2487.32,-749.27 3680.09,-480.98 1050.73,236.34 2011.16,814.92 2768.23,1565.25 156.52,155.13 593.6,730.39 683.56,789.01 56.53,-17.05 501.9,-331.67 576.43,-392.47 256.78,-209.45 -35.18,-465.07 -187.62,-627.52 -1162.85,-1239.26 -2739.63,-2384.95 -4510.19,-2431.78 -1462.98,-38.69 -2774.07,166.05 -4007.29,1002.31 -197.7,134.06 -537.16,253.45 -337.7,521.34 79.03,106.14 374.68,539.4 430.88,581.68z"/>
  <path class="fil0" d="M16397.92 3077.52c36.21,149.47 306.29,675.81 420.71,757.37 375.99,-100.55 835.71,-865.35 2854.02,-624.35 976.48,116.6 1606.11,720.17 2161.77,1456.49 262.81,27 213.83,-48.41 410.45,-201.88 249.27,-194.56 740.84,-226.48 -149.25,-1027.1 -396.52,-356.65 -1075.94,-819.49 -1610.82,-997.69 -1078.78,-359.4 -3417.08,-400.72 -4086.88,637.16z"/>
  <path class="fil0" d="M18080.74 5517.93c398.25,-222.46 521.28,-404.86 1186.99,-219.39 839.49,233.9 708.65,486.38 1004.3,601.69 235.42,-176.67 485.35,-344.11 669.52,-550.6 -311.65,-608.79 -1208.88,-1138.48 -2055.84,-1131.59 -846.96,6.89 -1379.71,318.83 -1323.3,600.41 22.05,110.07 397.11,516.24 518.33,699.49z"/>
  <path class="fil0" d="M6649.85 30472.64c-40.55,4.88 -78.67,7.88 -120.53,12.93 -22.74,2.74 -33.13,2.4 -56.46,5.22 -20.84,2.51 -41.68,5.01 -62.52,7.53 -20.78,2.51 -37.71,2.95 -59.58,5.58 -20.85,2.51 -41.7,4.97 -62.55,7.57 -11.1,1.38 -16.39,0.28 -28.28,1.77l-93.79 11.3c3.22,3.45 7.84,4.83 12.63,7.35 4.87,2.56 8.38,4.61 12.87,7.04l80.45 43.54c9.49,5.3 17.56,9.04 26.89,14.43l294.53 158.43c-6.35,18.7 -7.46,39.22 -12.49,58.12 -7.26,27.28 -18.71,88.04 -25.05,119.03 -4.07,19.88 -8.41,38.66 -12.66,59.4 -5.21,25.44 -49.99,227.26 -49.58,238.46 7.5,-5.2 15.44,-13.89 22.44,-20.59l285.67 -272.48c2.37,-2.3 2.7,-2.78 4.88,-4.67l28.17 -26.23c4.4,-2.71 6.48,-6.56 10.27,-10.11l19.56 11.96c0.15,0.09 0.55,0.29 0.71,0.37 0.15,0.08 0.56,0.24 0.73,0.32l2.42 0.99c0.23,0.11 0.66,0.33 0.9,0.45 27.25,13.65 52.97,29.81 79.31,45.02 39.09,22.58 79.27,44.26 117.86,68.01 47.51,29.23 96.9,55.6 145.26,83.56 16.49,9.54 36.6,23.76 53.95,30.42 -1.82,-8.84 -176.72,-371.21 -183.18,-383.19l-19.1 -40.58c-3.16,-6.81 -3.14,-9.03 -7.42,-13.99 15.26,-13.12 29.21,-26.7 44.68,-39.93 7.84,-6.71 15.17,-13.79 22.59,-20.48 7.55,-6.82 15.11,-13.3 22.66,-20.42l45.4 -40.78c8.04,-7.47 14.37,-13.11 22.64,-20.44l67.02 -60.6c18.62,-17.79 130.73,-114.71 135.39,-122.99l-90.65 10.91c-12.28,1.45 -18.89,3.9 -29.45,5.19 -20.33,2.47 -40.69,4.84 -61.02,7.29 -22.25,2.68 -39.93,6.41 -60.77,8.91 -20.32,2.43 -40.64,4.89 -60.95,7.34 -24.79,2.99 -48.6,8.02 -74,10.06 -32.25,2.59 -72.24,10.72 -105.37,14.71 -2.26,-10.99 -62.56,-143.1 -73.34,-166.17 -34.13,-73.02 -65.74,-147.37 -98.33,-220.88 -8.17,-18.42 -17.34,-36.32 -24.33,-55.53l-3.12 0.37c0.35,9.53 -19.6,112.02 -21.12,119.28 -4.21,20.11 -7.25,39.05 -10.69,59.54 -13.26,79.01 -29.36,158.72 -43.52,237.56 -2.86,15.93 -10.53,45.75 -10.01,60.07z"/>
  <path class="fil0" d="M14295.47 30653.93c-48.67,-9.52 -93.84,-20.3 -144.09,-30.12 -27.29,-5.33 -39.17,-9.61 -67.17,-15.07 -25.02,-4.89 -50.03,-9.79 -75.05,-14.67 -24.94,-4.87 -44.68,-10.68 -70.92,-15.81 -25.04,-4.9 -50.05,-9.84 -75.1,-14.63 -13.34,-2.55 -19.04,-5.81 -33.34,-8.52l-112.58 -21.99c2.43,5.18 7.25,8.51 11.85,13.2 4.67,4.78 7.96,8.47 12.25,12.94l76.67 80.38c8.98,9.67 16.91,17.02 25.67,26.72l281.08 293.12c-14.33,19.23 -23.28,42.53 -36.15,62.5 -18.59,28.8 -54.53,94.72 -73.43,128.15 -12.13,21.45 -24.17,41.53 -36.83,63.91 -15.53,27.44 -142.7,243.88 -146.42,256.98 10.62,-3.21 23.03,-10.28 33.63,-15.41l431.89 -208.03c3.6,-1.76 4.16,-2.21 7.38,-3.56l42.34 -19.78c6.11,-1.49 9.95,-5.16 15.65,-7.84l18.13 21.13c0.14,0.16 0.53,0.54 0.68,0.69 0.14,0.14 0.56,0.49 0.72,0.63l2.42 2.05c0.23,0.21 0.64,0.63 0.87,0.86 26.39,25.95 50.05,54.23 74.79,81.65 36.74,40.71 75.05,80.77 110.75,122.62 43.96,51.54 91.17,100.47 136.6,150.85 15.49,17.17 33.4,41.13 50.96,55.32 1.2,-10.89 -65.42,-494.93 -68.41,-511.19l-6.9 -54.02c-1.12,-9.05 -0.26,-11.61 -3.34,-18.94 22.54,-9.45 43.73,-19.93 66.54,-29.43 11.57,-4.82 22.68,-10.26 33.75,-15.23 11.27,-5.05 22.43,-9.71 33.81,-15.13l67.7 -30.14c12.08,-5.63 21.49,-9.77 33.8,-15.15l100.09 -44.96c28.15,-13.6 193.9,-83.67 202.38,-91.5l-108.81 -21.27c-14.73,-2.91 -23.28,-2.55 -35.96,-5.01 -24.41,-4.74 -48.81,-9.61 -73.22,-14.38 -26.71,-5.22 -48.53,-7.53 -73.54,-12.43 -24.39,-4.78 -48.78,-9.54 -73.17,-14.3 -29.74,-5.82 -59.14,-8.9 -89.25,-16.04 -38.23,-9.06 -87.47,-14.61 -127.23,-22.38 1.5,-13.55 -18.8,-188.72 -22.63,-219.4 -12.14,-97.13 -20.87,-194.83 -31.05,-291.94 -2.55,-24.33 -6.46,-48.45 -7.35,-73.26l-3.75 -0.74c-3.16,11.14 -64.5,122.1 -68.98,129.93 -12.38,21.66 -22.98,42.41 -34.6,64.79 -44.85,86.32 -93.25,172.4 -139.07,258.2 -9.26,17.33 -29.28,48.92 -34.02,65.67z"/>
  <path class="fil0" d="M24192.86 28637.78c-37.03,-14.69 -71.1,-29.87 -109.33,-45.03 -20.76,-8.24 -29.51,-13.36 -50.81,-21.81 -19.03,-7.55 -38.06,-15.11 -57.09,-22.65 -18.98,-7.53 -33.7,-15.03 -53.66,-22.94 -19.04,-7.55 -38.06,-15.15 -57.13,-22.63 -10.15,-3.98 -14.17,-7.39 -25.06,-11.65l-85.63 -33.97c1.16,4.46 4.47,7.79 7.4,12.17 2.98,4.46 5.03,7.86 7.76,12.02l48.68 74.77c5.66,8.95 10.84,15.93 16.32,24.88l178.68 272.87c-14.15,13.07 -24.65,30.15 -37.76,44.01 -18.92,20 -57.02,66.74 -76.87,90.35 -12.74,15.14 -25.21,29.22 -38.5,45.02 -16.31,19.38 -148.62,171.49 -153.48,181.29 8.85,-0.97 19.69,-4.72 28.82,-7.21l371.66 -100.55c3.1,-0.86 3.61,-1.13 6.35,-1.72l36.34 -9.38c5.05,-0.27 8.62,-2.61 13.51,-3.88l11.2 19.35c0.09,0.14 0.33,0.5 0.43,0.64 0.09,0.14 0.37,0.47 0.47,0.6l1.61 1.98c0.14,0.2 0.41,0.59 0.56,0.8 17.01,24.39 31.52,50.2 47.01,75.5 23,37.56 47.34,74.83 69.35,113.14 27.1,47.17 57.17,92.76 85.6,139.23 9.69,15.84 20.31,37.39 32.08,51.19 2.56,-8.43 21.33,-400.39 21.37,-413.67l2.52 -43.66c0.45,-7.3 1.5,-9.2 0.16,-15.44 19.18,-4.13 37.46,-9.29 56.88,-13.43 9.84,-2.1 19.42,-4.76 28.89,-7.04 9.65,-2.33 19.14,-4.36 28.92,-6.96l57.89 -13.81c10.36,-2.66 18.41,-4.55 28.91,-6.98l85.65 -20.74c24.24,-6.58 165.43,-37.46 173.27,-42.39l-82.77 -32.85c-11.19,-4.47 -18,-5.45 -27.65,-9.26 -18.57,-7.34 -37.12,-14.79 -55.69,-22.15 -20.32,-8.06 -37.2,-13.1 -56.22,-20.65 -18.55,-7.38 -37.1,-14.73 -55.66,-22.08 -22.63,-8.98 -45.38,-15.75 -68.1,-25.82 -28.85,-12.8 -66.9,-24.44 -97.15,-36.44 3.18,-10.47 12.99,-151.76 14.49,-176.55 4.74,-78.47 12.26,-156.89 18.54,-235.06 1.58,-19.6 2.04,-39.21 5,-58.93l-2.85 -1.14c-4.13,8.33 -68.93,86.88 -73.63,92.4 -12.97,15.28 -24.39,30.1 -36.87,46.05 -48.14,61.54 -99.04,122.36 -147.87,183.34 -9.86,12.32 -30.32,34.31 -36.53,46.83z"/>
  <path class="fil0" d="M31290.77 28741.99c-52.67,-9.3 -101.58,-20.04 -155.96,-29.64 -29.54,-5.21 -42.42,-9.59 -72.73,-14.94 -27.07,-4.78 -54.13,-9.57 -81.2,-14.35 -27,-4.76 -48.39,-10.64 -76.79,-15.65 -27.08,-4.78 -54.15,-9.63 -81.26,-14.31 -14.43,-2.49 -20.64,-5.88 -36.11,-8.53l-121.82 -21.5c2.72,5.54 7.99,9.03 13.03,14 5.13,5.06 8.75,8.97 13.45,13.72l84.25 85.16c9.87,10.24 18.57,18.01 28.21,28.3l308.83 310.53c-15.07,21.01 -24.26,46.32 -37.75,68.09 -19.47,31.42 -56.93,103.2 -76.66,139.62 -12.66,23.36 -25.25,45.26 -38.46,69.63 -16.2,29.91 -149.07,265.76 -152.81,279.96 11.38,-3.67 24.62,-11.54 35.95,-17.27l461.59 -232.8c3.85,-1.97 4.44,-2.46 7.89,-3.98l45.26 -22.16c6.56,-1.73 10.62,-5.76 16.72,-8.76l19.96 22.42c0.16,0.17 0.58,0.57 0.75,0.73 0.16,0.16 0.62,0.52 0.79,0.67l2.66 2.17c0.24,0.22 0.7,0.66 0.95,0.91 28.96,27.47 55.03,57.49 82.25,86.57 40.41,43.17 82.5,85.61 121.82,130.04 48.41,54.7 100.28,106.53 150.26,159.96 17.03,18.22 36.82,43.69 56.03,58.64 1.09,-11.77 -80.27,-532.37 -83.82,-549.84l-8.49 -58.1c-1.38,-9.73 -0.52,-12.51 -3.98,-20.35 24.12,-10.63 46.76,-22.35 71.17,-33.05 12.38,-5.42 24.26,-11.51 36.09,-17.08 12.06,-5.67 23.99,-10.92 36.16,-16.98l72.4 -33.83c12.92,-6.31 22.98,-10.96 36.14,-17l107.04 -50.45c30.1,-15.21 207.44,-94.02 216.42,-102.63l-117.75 -20.8c-15.93,-2.85 -25.15,-2.3 -38.87,-4.7 -26.41,-4.63 -52.82,-9.4 -79.24,-14.07 -28.9,-5.1 -52.47,-7.15 -79.53,-11.95 -26.39,-4.67 -52.78,-9.32 -79.18,-13.98 -32.18,-5.68 -63.94,-8.43 -96.55,-15.53 -41.4,-9.02 -94.6,-14.04 -137.63,-21.64 1.35,-14.63 -23.97,-203.11 -28.71,-236.11 -15,-104.48 -26.33,-209.66 -39.22,-314.17 -3.24,-26.19 -7.92,-52.11 -9.37,-78.84l-4.06 -0.72c-3.18,12.07 -67.15,132.91 -71.82,141.44 -12.93,23.6 -23.93,46.17 -36.04,70.54 -46.66,93.96 -97.15,187.72 -144.87,281.13 -9.64,18.87 -30.6,53.33 -35.39,71.47z"/>
  <path class="fil0" d="M36917.66 20841.68c48.25,-23.07 92.5,-46.54 142.32,-70.35 27.06,-12.93 38.3,-20.61 66.06,-33.88 24.8,-11.85 49.59,-23.72 74.39,-35.58 24.73,-11.83 43.77,-23.22 69.78,-35.66 24.81,-11.87 49.6,-23.8 74.46,-35.56 13.23,-6.27 18.31,-11.2 32.5,-17.9l111.6 -53.36c-1.14,6.07 -5.28,10.84 -8.8,16.99 -3.58,6.24 -6.02,10.99 -9.29,16.81l-58.35 104.63c-6.76,12.51 -13.06,22.33 -19.58,34.82l-214.31 381.94c20.15,16.2 35.79,38.12 54.62,55.48 27.18,25.06 82.51,84.18 111.27,113.97 18.45,19.12 36.45,36.83 55.71,56.78 23.63,24.47 214.84,216.08 222.25,228.76 -11.95,-0.49 -26.81,-4.52 -39.26,-7.01l-507.09 -100.58c-4.23,-0.87 -4.94,-1.18 -8.67,-1.73l-49.55 -9.22c-6.78,0.09 -11.78,-2.7 -18.45,-3.96l-13.22 26.95c-0.11,0.21 -0.41,0.71 -0.52,0.91 -0.11,0.19 -0.46,0.66 -0.58,0.85l-1.98 2.8c-0.17,0.28 -0.49,0.83 -0.67,1.14 -20.54,34.22 -37.62,70.13 -56.05,105.45 -27.35,52.42 -56.54,104.59 -82.52,157.93 -31.98,65.67 -68.06,129.51 -101.88,194.37 -11.53,22.12 -23.77,51.96 -38.27,71.52 -4.2,-11.05 -65.33,-534.41 -66.6,-552.19l-7.39 -58.26c-1.27,-9.75 -2.85,-12.19 -1.63,-20.67 -26.08,-3.78 -51.03,-9 -77.42,-12.77 -13.37,-1.91 -26.45,-4.59 -39.34,-6.78 -13.14,-2.23 -26.05,-4.09 -39.39,-6.66l-78.82 -13.2c-14.13,-2.61 -25.08,-4.4 -39.38,-6.69l-116.64 -19.91c-33.07,-6.6 -225.04,-35 -236,-40.88l107.87 -51.59c14.59,-7.02 23.62,-8.95 36.19,-14.94 24.21,-11.54 48.37,-23.21 72.56,-34.78 26.48,-12.67 48.64,-20.96 73.42,-32.83 24.17,-11.58 48.36,-23.13 72.54,-34.69 29.49,-14.1 59.34,-25.26 88.86,-40.85 37.47,-19.79 87.37,-38.87 126.79,-57.72 -5.22,-13.74 -31.34,-202.11 -35.61,-235.18 -13.55,-104.68 -30.82,-209.05 -46.41,-313.18 -3.91,-26.1 -6.34,-52.33 -12.11,-78.47l3.72 -1.79c6.3,10.78 100.32,110.05 107.1,117.02 18.78,19.27 35.44,38.07 53.63,58.3 70.13,78.02 143.9,154.82 214.92,232.02 14.35,15.6 43.77,43.17 53.24,59.38z"/>
  <path class="fil0" d="M18367.51 21720.99c65.43,-12.15 126.17,-26.06 193.72,-38.59 36.68,-6.81 52.67,-12.4 90.31,-19.39 33.63,-6.24 67.25,-12.5 100.88,-18.74 33.53,-6.22 60.09,-13.77 95.36,-20.32 33.65,-6.25 67.28,-12.58 100.95,-18.69 17.92,-3.26 25.61,-7.55 44.84,-11.02l151.33 -28.09c-3.33,6.92 -9.84,11.33 -16.06,17.57 -6.33,6.35 -10.79,11.25 -16.6,17.21l-103.88 106.88c-12.17,12.86 -22.9,22.61 -34.77,35.52l-380.81 389.77c18.99,25.97 30.69,57.36 47.72,84.3 24.57,38.88 71.97,127.78 96.92,172.87 16,28.93 31.91,56.02 48.61,86.21 20.49,37.03 188.4,329.01 193.21,346.63 -14.19,-4.44 -30.77,-14.08 -44.91,-21.1l-576.87 -284.55c-4.8,-2.4 -5.55,-3.01 -9.86,-4.87l-56.56 -27.07c-8.18,-2.07 -13.28,-7.05 -20.9,-10.72l-24.59 28.11c-0.19,0.22 -0.72,0.72 -0.91,0.92 -0.2,0.2 -0.77,0.65 -0.98,0.85l-3.28 2.72c-0.3,0.28 -0.86,0.84 -1.17,1.14 -35.73,34.49 -67.84,72.14 -101.38,108.62 -49.8,54.15 -101.71,107.43 -150.13,163.13 -59.63,68.59 -123.6,133.65 -185.18,200.68 -20.99,22.85 -45.33,54.76 -69.07,73.58 -1.48,-14.63 94,-663.24 98.22,-685.02l9.93 -72.39c1.61,-12.12 0.51,-15.56 4.72,-25.36 -30.12,-12.96 -58.42,-27.29 -88.92,-40.33 -15.45,-6.62 -30.3,-14.06 -45.08,-20.85 -15.07,-6.92 -29.98,-13.32 -45.18,-20.72l-90.45 -41.3c-16.14,-7.7 -28.72,-13.38 -45.16,-20.76l-133.73 -61.58c-37.61,-18.6 -259.12,-114.7 -270.39,-125.31l146.27 -27.18c19.79,-3.72 31.27,-3.13 48.31,-6.27 32.81,-6.04 65.61,-12.28 98.43,-18.38 35.9,-6.67 65.21,-9.48 98.82,-15.74 32.78,-6.11 65.57,-12.18 98.35,-18.28 39.99,-7.43 79.47,-11.19 119.96,-20.39 51.41,-11.68 117.54,-18.51 171,-28.44 -1.84,-18.19 27.58,-252.97 33.11,-294.08 17.51,-130.16 30.44,-261.15 45.33,-391.31 3.73,-32.62 9.28,-64.93 10.79,-98.2l5.04 -0.94c4.1,14.98 85.02,164.63 90.92,175.19 16.34,29.22 30.29,57.19 45.62,87.37 59.1,116.39 122.94,232.49 183.35,348.18 12.21,23.38 38.66,66.01 44.82,88.54z"/>
  <polygon class="fil0" points="8405.62,30504.19 10082.92,30083.99 8741.05,31226.38 "/>
  <polygon class="fil0" points="9899.86,32443.06 10886.66,31310.53 10589.71,32840.79 "/>
  <polygon class="fil0" points="289.4,23577.65 2519.48,23685.33 94.14,24508.24 "/>
  <polygon class="fil0" points="1824.32,20098.02 2809.08,21422.67 1404.17,20594.51 "/>
  <polygon class="fil0" points="12945.13,18593.72 13415.93,19696.11 11938.42,19950.01 "/>
  <polygon class="fil0" points="19780.53,20714.15 20016,21043.98 19203.27,21491.88 "/>
  <polygon class="fil0" points="31290.94,19403.02 31810.14,19094.6 32108.29,20374.14 "/>
  <polygon class="fil0" points="19780.53,20714.15 20016,21043.98 19203.27,21491.88 "/>
  <polygon class="fil0" points="34221.89,18201.46 34740.74,18182.81 34448.89,19325.38 "/>
  <polygon class="fil0" points="35923.51,18020.88 37241.08,18002.23 35115.64,20839.47 "/>
  <polygon class="fil0" points="48272.38,19578.79 49763.58,20206.07 47051.32,21858.01 "/>
  <polygon class="fil0" points="47745.39,23134.24 47855.97,23831.82 49251.36,23208.01 "/>
  <polygon class="fil0" points="50272.33,26474.96 49800.58,27575.37 47884.29,26222.3 "/>
  <polygon class="fil0" points="40715.51,30211.57 39479.76,30367.4 38674.74,28847.65 "/>
  <path class="fil0" d="M18677.36 6696.06c-1226.81,0 -1135.92,-218.15 -1292.68,684.72l-1653.89 10721.2 3094.85 -1.66 1348 -8813.83c134.69,-936.82 379.32,-1710.55 -623.24,-2411.79 -343.58,-218.74 -456.94,-178.64 -873.03,-178.64z"/>
 </g>
</svg>
