<svg width="64" height="64" viewBox="0 0 64 64" fill="none" xmlns="http://www.w3.org/2000/svg">
<rect width="64" height="64" rx="16" fill="url(#gradient)"/>
<path d="M16 20h8v8h-8v-8zm12 0h8v8h-8v-8zm12 0h8v8h-8v-8z" fill="white" opacity="0.9"/>
<path d="M16 32h8v8h-8v-8zm12 0h8v8h-8v-8zm12 0h8v8h-8v-8z" fill="white" opacity="0.7"/>
<path d="M16 44h8v8h-8v-8zm12 0h8v8h-8v-8zm12 0h8v8h-8v-8z" fill="white" opacity="0.5"/>
<defs>
<linearGradient id="gradient" x1="0" y1="0" x2="64" y2="64" gradientUnits="userSpaceOnUse">
<stop offset="0%" stop-color="#23B9E8"/>
<stop offset="100%" stop-color="#1E40AF"/>
</linearGradient>
</defs>
</svg>